<?xml version="1.0" encoding="UTF-8"?>
<!DOCTYPE svg PUBLIC "-//W3C//DTD SVG 1.1//EN" "http://www.w3.org/Graphics/SVG/1.1/DTD/svg11.dtd">
<!-- Creator: CorelDRAW X7 -->
<svg xmlns="http://www.w3.org/2000/svg" xml:space="preserve" width="210mm" height="297mm" version="1.1" style="shape-rendering:geometricPrecision; text-rendering:geometricPrecision; image-rendering:optimizeQuality; fill-rule:evenodd; clip-rule:evenodd"
viewBox="0 0 21000 29700"
 xmlns:xlink="http://www.w3.org/1999/xlink">
 <defs>
  <style type="text/css">
   <![CDATA[
    .fil0 {fill:#070707}
    .fil3 {fill:#EDEDED}
    .fil1 {fill:#F3F3F3}
    .fil2 {fill:whitesmoke}
   ]]>
  </style>
 </defs>
 <g id="Layer_x0020_1">
  <metadata id="CorelCorpID_0Corel-Layer"/>
  <g id="_2179425038464">
   <path class="fil0" d="M12707 13432c91,-29 137,-53 247,-70 250,-38 632,-18 890,-19 697,-2 574,-44 571,641l-1 3674c1,368 19,784 -138,1076 -166,309 -687,706 -1066,761 -224,33 -323,-21 -503,-83l0 -5980zm-2064 -7558l349 0c384,1 861,7 1092,40l483 67c278,48 382,86 637,183 244,93 521,115 762,221 376,166 737,363 1104,546 787,394 563,386 1085,705 116,71 232,138 332,231 90,83 183,200 277,273 37,28 42,35 74,66 30,30 46,35 76,64l428 392c94,95 191,188 254,308 128,241 149,171 247,303 89,119 108,166 231,319 86,107 160,196 237,313 162,242 463,876 627,1175l428 825c96,190 128,415 206,613 30,75 39,140 56,225 47,235 131,408 161,658 30,249 38,509 74,757 10,69 24,152 38,231 27,149 45,323 54,504l0 479c-8,157 -23,308 -45,439 -8,44 -12,75 -20,120 -50,266 -76,492 -99,768 -26,319 -155,615 -241,917 -23,83 -44,150 -63,230 -60,238 -7,205 -141,433 -49,83 -106,303 -155,418 -31,70 -51,129 -83,198 -62,134 -133,250 -209,376l-372 647c-19,31 -33,52 -51,89 -95,187 -228,348 -345,521 -119,174 -231,337 -380,486 -197,196 -342,420 -526,620 -60,65 -89,80 -167,127 -123,73 -210,175 -319,266 -104,87 -187,194 -298,275 -64,48 -97,83 -153,140 -113,112 -206,146 -345,229 -125,74 -238,147 -370,214 -180,90 -378,212 -554,312 -77,44 -166,63 -256,108l-333 158c-275,138 -723,355 -1026,425 -221,52 -239,41 -449,136 -138,62 -322,60 -467,107 -228,74 -508,78 -742,124 -167,33 -483,72 -652,74 -45,1 -95,-4 -139,1 -38,4 -76,8 -115,10l-382 0c-201,-11 -401,-36 -588,-64 -94,-14 -177,-9 -273,-19 -224,-25 -450,-26 -666,-72l-809 -197c-67,-24 -139,-59 -212,-81 -209,-63 -217,-59 -430,-144l-406 -180c-241,-121 -872,-369 -991,-448 -175,-117 -346,-246 -530,-347 -338,-184 -428,-151 -685,-474 -61,-77 -147,-149 -223,-211 -27,-22 -48,-38 -78,-61 -294,-233 -700,-552 -879,-865 -31,-54 -94,-97 -133,-148l-272 -314c-88,-108 -170,-209 -253,-320 -199,-265 -278,-472 -433,-726l-203 -382c-16,-30 -32,-65 -51,-101l-136 -286c-15,-37 -32,-63 -47,-105l-205 -520c-202,-503 -311,-951 -393,-1491l-73 -501c-69,-467 -76,-1125 -76,-1597 0,-197 15,-368 23,-550 12,-265 52,-503 128,-739 96,-300 93,-648 210,-936 82,-201 57,-172 168,-405 34,-73 49,-117 57,-224 15,-190 66,-300 132,-442 206,-445 462,-867 714,-1287 33,-56 70,-126 110,-171 279,-308 187,-283 349,-517 45,-64 638,-686 708,-744 1,-1 4,-3 6,-5 75,-62 158,-170 222,-246 183,-218 434,-375 656,-550l727 -572 265 -156c258,-128 524,-236 781,-367l188 -92c124,-49 361,-86 444,-130 70,-36 105,-65 189,-92 78,-26 139,-49 199,-93 158,-119 855,-318 1064,-364 164,-36 309,-63 490,-84 169,-20 946,-34 1113,-34 91,1 164,-12 269,-12l18 0zm-6258 5123c137,-38 187,-38 297,-110 84,-55 156,-102 247,-152 247,-139 363,-116 622,-23 3,109 156,279 214,360 180,252 175,262 390,476 50,49 83,91 133,148l512 635c124,163 147,245 227,347 48,61 96,102 138,155 40,51 77,105 118,162 37,50 79,107 115,167 107,178 129,171 260,313 406,440 316,221 626,802 167,313 356,432 474,661 85,164 141,217 244,329 94,103 191,186 285,289 43,46 91,94 131,150 59,83 25,101 145,139 256,-463 11,-1629 74,-2243 11,-98 18,-201 112,-225 276,-70 1005,-60 1309,-36 298,24 322,48 332,362 7,220 -20,443 -19,667 5,909 22,1818 23,2727 1,446 3,902 -17,1345 -12,248 -43,365 -162,531 -95,133 -205,233 -358,322 -99,57 -381,201 -520,138 -96,-43 -864,-1192 -1056,-1355 -54,-46 -414,-484 -467,-551l-317 -374c-177,-224 -715,-1054 -871,-1177 -69,-54 -149,-95 -192,-159 -21,-31 -30,-84 -54,-122 -40,-67 -313,-389 -376,-467 -198,-244 -358,-571 -558,-811l-322 -368c-145,-155 -208,-309 -373,-292 -39,349 -29,1552 -23,1959 15,1100 35,2337 19,3440 -7,482 -248,318 -544,202 -501,-196 -563,-188 -868,-607 -102,-139 -124,-109 -170,-332 -30,-142 -77,-256 -102,-389 -60,-307 -25,-651 -26,-968 -2,-1318 -27,-2621 -18,-3944 3,-327 -1,-657 14,-983 31,-703 62,-310 127,-613 14,-67 1,-159 26,-222l116 -24c33,-115 78,-26 83,-279zm12791 1120c-314,47 -756,40 -1084,46 -1097,20 -2264,15 -3360,8 -747,-5 -1501,-17 -2247,-10 -729,7 -766,96 -729,-371 32,-416 149,-558 366,-743 181,-155 396,-365 739,-380 1069,-49 2264,9 3346,-1 489,-4 1744,-98 2101,94 88,47 299,170 341,222 49,60 78,97 133,147 145,134 256,318 325,518 32,95 104,365 69,470z"/>
   <path class="fil1" d="M4385 10997c-5,253 -50,164 -83,279l-116 24c-25,63 -12,155 -26,222 -65,303 -96,-90 -127,613 -15,326 -11,656 -14,983 -9,1323 16,2626 18,3944 1,317 -34,661 26,968 25,133 72,247 102,389 46,223 68,193 170,332 305,419 367,411 868,607 296,116 537,280 544,-202 16,-1103 -4,-2340 -19,-3440 -6,-407 -16,-1610 23,-1959 165,-17 228,137 373,292l322 368c200,240 360,567 558,811 63,78 336,400 376,467 24,38 33,91 54,122 43,64 123,105 192,159 156,123 694,953 871,1177l317 374c53,67 413,505 467,551 192,163 960,1312 1056,1355 139,63 421,-81 520,-138 153,-89 263,-189 358,-322 119,-166 150,-283 162,-531 20,-443 18,-899 17,-1345 -1,-909 -18,-1818 -23,-2727 -1,-224 26,-447 19,-667 -10,-314 -34,-338 -332,-362 -304,-24 -1033,-34 -1309,36 -94,24 -101,127 -112,225 -63,614 182,1780 -74,2243 -120,-38 -86,-56 -145,-139 -40,-56 -88,-104 -131,-150 -94,-103 -191,-186 -285,-289 -103,-112 -159,-165 -244,-329 -118,-229 -307,-348 -474,-661 -310,-581 -220,-362 -626,-802 -131,-142 -153,-135 -260,-313 -36,-60 -78,-117 -115,-167 -41,-57 -78,-111 -118,-162 -42,-53 -90,-94 -138,-155 -80,-102 -103,-184 -227,-347l-512 -635c-50,-57 -83,-99 -133,-148 -215,-214 -210,-224 -390,-476 -58,-81 -211,-251 -214,-360 -259,-93 -375,-116 -622,23 -91,50 -163,97 -247,152 -110,72 -160,72 -297,110z"/>
   <path class="fil2" d="M17176 12117c35,-105 -37,-375 -69,-470 -69,-200 -180,-384 -325,-518 -55,-50 -84,-87 -133,-147 -42,-52 -253,-175 -341,-222 -357,-192 -1612,-98 -2101,-94 -1082,10 -2277,-48 -3346,1 -343,15 -558,225 -739,380 -217,185 -334,327 -366,743 -37,467 0,378 729,371 746,-7 1500,5 2247,10 1096,7 2263,12 3360,-8 328,-6 770,1 1084,-46z"/>
   <path class="fil3" d="M12707 13432l0 5980c180,62 279,116 503,83 379,-55 900,-452 1066,-761 157,-292 139,-708 138,-1076l1 -3674c3,-685 126,-643 -571,-641 -258,1 -640,-19 -890,19 -110,17 -156,41 -247,70z"/>
  </g>
 </g>
</svg>
